<svg xmlns="http://www.w3.org/2000/svg" id="skill-mobfirst" viewBox="0 0 65 65">
  <path d="M60.5,1.8c-0.4,0-0.8,0.3-0.8,0.8v14c0,0.4,0.3,0.8,0.8,0.8s0.8-0.3,0.8-0.8v-14C61.3,2.1,60.9,1.8,60.5,1.8z"/>
  <path d="M60.5,18.8c-0.4,0-0.8,0.3-0.8,0.8v2c0,0.4,0.3,0.8,0.8,0.8s0.8-0.3,0.8-0.8v-2C61.3,19.1,60.9,18.8,60.5,18.8   z"/>
  <path d="M8.5,56.8H7.3v-1.3c0-0.4-0.3-0.8-0.8-0.8s-0.8,0.3-0.8,0.8v1.3H4.5c-0.4,0-0.8,0.3-0.8,0.8s0.3,0.8,0.8,0.8   h1.3v1.3c0,0.4,0.3,0.8,0.8,0.8s0.8-0.3,0.8-0.8v-1.3h1.3c0.4,0,0.8-0.3,0.8-0.8S8.9,56.8,8.5,56.8z"/>
  <path d="M57.5,25.8h-1.3v-1.3c0-0.4-0.3-0.8-0.8-0.8s-0.8,0.3-0.8,0.8v1.3h-1.3c-0.4,0-0.8,0.3-0.8,0.8   s0.3,0.8,0.8,0.8h1.3v1.3c0,0.4,0.3,0.8,0.8,0.8s0.8-0.3,0.8-0.8v-1.3h1.3c0.4,0,0.8-0.3,0.8-0.8S57.9,25.8,57.5,25.8z"/>
  <path d="M24.5,6.3h14c0.4,0,0.8-0.3,0.8-0.8s-0.3-0.8-0.8-0.8h-14c-0.4,0-0.8,0.3-0.8,0.8S24.1,6.3,24.5,6.3z"/>
  <path d="M32.5,54.8c-1.5,0-2.8,1.2-2.8,2.8s1.2,2.8,2.8,2.8s2.8-1.2,2.8-2.8S34,54.8,32.5,54.8z M32.5,58.8   c-0.7,0-1.3-0.6-1.3-1.3s0.6-1.3,1.3-1.3s1.3,0.6,1.3,1.3S33.2,58.8,32.5,58.8z"/>
  <path d="M47.5,22.2c0.5,0,1.1,0.1,1.6,0.2c0.1,0,0.2,0,0.3,0c0,0,0.1,0,0.1,0c0.4,0,0.8-0.3,0.8-0.8v-8.3c0,0,0,0,0,0   s0,0,0,0v-12c0-0.4-0.3-0.8-0.8-0.8h-36c-0.4,0-0.8,0.3-0.8,0.8v62c0,0.4,0.3,0.8,0.8,0.8h36c0.4,0,0.8-0.3,0.8-0.8v-22   c0,0,0,0,0,0s0,0,0,0v-8.3c0-0.4-0.3-0.8-0.8-0.8c0,0-0.1,0-0.1,0c-0.1,0-0.2,0-0.3,0c-0.5,0.2-1,0.2-1.6,0.2   c-2.9,0-5.3-2.4-5.3-5.3S44.6,22.2,47.5,22.2z M35.5,19.4l1.5,2.9c-0.2,0.5-0.4,1-0.6,1.5l-3.1,1c-0.3,0.1-0.5,0.4-0.5,0.7v4   c0,0.3,0.2,0.6,0.5,0.7l3.1,1c0.2,0.5,0.4,1,0.6,1.5l-1.5,2.9c-0.1,0.3-0.1,0.6,0.1,0.9l2.8,2.8c0.2,0.2,0.6,0.3,0.9,0.1l2.9-1.5   c0.5,0.2,1,0.4,1.5,0.6l1,3.1c0.1,0.3,0.4,0.5,0.7,0.5h3.2v8.5H41v-2.5c0-0.3-0.2-0.6-0.5-0.7L38,46.7c-0.1-0.4-0.3-0.7-0.4-1.1   l1.2-2.3c0.1-0.3,0.1-0.6-0.1-0.9l-2.3-2.3c-0.2-0.2-0.6-0.3-0.9-0.1l-2.3,1.2c-0.3-0.2-0.7-0.3-1.1-0.4l-0.8-2.5   c-0.1-0.3-0.4-0.5-0.7-0.5h-3.3c-0.3,0-0.6,0.2-0.7,0.5l-0.8,2.5c-0.4,0.1-0.7,0.3-1.1,0.4L22.3,40c-0.3-0.1-0.6-0.1-0.9,0.1   l-2.3,2.3c-0.2,0.2-0.3,0.6-0.1,0.9l1.2,2.3c-0.2,0.3-0.3,0.7-0.4,1.1l-2.5,0.8c-0.3,0.1-0.5,0.4-0.5,0.7v2.5h-2.5V10.3h34.5v2.5   h-3.2c-0.3,0-0.6,0.2-0.7,0.5l-1,3.1c-0.5,0.2-1,0.4-1.5,0.6l-2.9-1.5c-0.3-0.1-0.6-0.1-0.9,0.1l-2.8,2.8   C35.4,18.7,35.4,19.1,35.5,19.4z M34.4,50.8c0-0.3,0.1-0.6,0.1-0.9c0-3.1-2.5-5.6-5.6-5.6s-5.6,2.5-5.6,5.6c0,0.3,0,0.6,0.1,0.9   h-5.1v-2l2.3-0.8c0.2-0.1,0.4-0.3,0.5-0.5c0.2-0.6,0.4-1.1,0.6-1.5c0.1-0.2,0.1-0.5,0-0.7l-1.1-2.2l1.5-1.5l2.2,1.1   c0.2,0.1,0.5,0.1,0.7,0c0.5-0.3,1-0.5,1.5-0.6c0.2-0.1,0.4-0.2,0.5-0.5l0.8-2.3H30l0.8,2.3c0.1,0.2,0.3,0.4,0.5,0.5   c0.6,0.2,1.1,0.4,1.5,0.6c0.2,0.1,0.5,0.1,0.7,0l2.2-1.1l1.5,1.5l-1.1,2.2c-0.1,0.2-0.1,0.5,0,0.7c0.3,0.5,0.5,1,0.6,1.5   c0.1,0.2,0.3,0.4,0.5,0.5l2.3,0.8v2H34.4z M48.8,2.3v6.5H14.3V2.3H48.8z M14.3,62.8V52.3c0,0,10,0,10,0c0.3,0,0.5-0.2,0.6-0.4   c0.1-0.2,0.1-0.4,0.1-0.6c-0.2-0.4-0.2-0.9-0.2-1.4c0-2.3,1.9-4.1,4.1-4.1s4.1,1.9,4.1,4.1c0,0.5-0.1,0.9-0.2,1.4   c-0.2,0.5,0.2,1,0.7,1h15.3v10.5H14.3z M40.8,27.5c0,3.7,3,6.8,6.8,6.8c0.4,0,0.8-0.1,1.2-0.1v6.6H46l-1-2.9   c-0.1-0.2-0.3-0.4-0.5-0.5c-0.7-0.2-1.3-0.5-1.9-0.8c-0.2-0.1-0.5-0.1-0.7,0l-2.8,1.4l-2.1-2.1l1.4-2.8c0.1-0.2,0.1-0.5,0-0.7   c-0.3-0.6-0.6-1.3-0.8-1.9c-0.1-0.2-0.3-0.4-0.5-0.5l-2.9-1V26l2.9-1c0.2-0.1,0.4-0.3,0.5-0.5c0.2-0.7,0.5-1.4,0.8-1.9   c0.1-0.2,0.1-0.5,0-0.7l-1.4-2.8l2.1-2.1l2.8,1.4c0.2,0.1,0.5,0.1,0.7,0c0.6-0.3,1.2-0.6,1.9-0.8c0.2-0.1,0.4-0.2,0.5-0.5l1-3h2.7   v6.6c-0.4-0.1-0.8-0.1-1.2-0.1C43.8,20.7,40.8,23.8,40.8,27.5z"/>
</svg>
