<!-- icon666.com - MILLIONS vector ICONS FREE --><svg viewBox="0 0 128 128" xmlns="http://www.w3.org/2000/svg"><g><g><path d="m57.123 59.105a1.749 1.749 0 0 1 -1.75-1.75v-7.844a1.75 1.75 0 0 1 3.5 0v7.844a1.749 1.749 0 0 1 -1.75 1.75z" fill="#f1f6f7"></path><rect fill="#284866" height="58.621" rx="3.558" width="91.843" x="11.201" y="67.629"></rect><path d="m103.045 83.055h6.783a2.668 2.668 0 0 1 2.668 2.668v22.433a2.668 2.668 0 0 1 -2.668 2.668h-6.783a0 0 0 0 1 0 0v-27.769a0 0 0 0 1 0 0z" fill="#2ee66b"></path><path d="m1.75 83.055h6.783a2.668 2.668 0 0 1 2.667 2.668v22.433a2.669 2.669 0 0 1 -2.669 2.669h-6.781a0 0 0 0 1 0 0v-27.77a0 0 0 0 1 0 0z" fill="#2ee66b" transform="matrix(-1 0 0 -1 12.951 193.879)"></path><path d="m44.713 57.355h24.82a6.227 6.227 0 0 1 6.227 6.227v4.047a0 0 0 0 1 0 0h-37.274a0 0 0 0 1 0 0v-4.047a6.227 6.227 0 0 1 6.227-6.227z" fill="#fd3"></path><path d="m62.877 43.757a5.754 5.754 0 1 1 -5.754-5.757 5.754 5.754 0 0 1 5.754 5.757z" fill="#fb3"></path><path d="m25.211 102.496h63.823v9.785h-63.823z" fill="#3bf"></path><g fill="#f1f6f7"><circle cx="36.205" cy="85.833" r="6.88"></circle><circle cx="78.041" cy="85.833" r="6.88"></circle><path d="m98.25 1.75c-15.464 0-28 8.9-28 19.884 0 4.87 2.469 9.328 6.561 12.785l-3.764 13.046 14.7-7.4a38.064 38.064 0 0 0 10.503 1.453c15.464 0 28-8.9 28-19.884s-12.536-19.884-28-19.884z"></path></g><path d="m95.52 14.587h-11.992a1.75 1.75 0 0 1 0-3.5h11.992a1.75 1.75 0 0 1 0 3.5z" fill="#cee1e4"></path><path d="m112.974 23.586h-29.446a1.75 1.75 0 0 1 0-3.5h29.446a1.75 1.75 0 0 1 0 3.5z" fill="#cee1e4"></path><path d="m112.974 32.586h-29.446a1.75 1.75 0 0 1 0-3.5h29.446a1.75 1.75 0 0 1 0 3.5z" fill="#cee1e4"></path></g><g><path d="m109.827 81.305h-5.027v-10.118a5.315 5.315 0 0 0 -5.309-5.308h-21.981v-2.3a7.986 7.986 0 0 0 -7.977-7.977h-10.66v-4.555a7.5 7.5 0 1 0 -3.5 0v4.558h-10.66a7.986 7.986 0 0 0 -7.977 7.977v2.3h-21.976a5.315 5.315 0 0 0 -5.309 5.308v10.115h-5.032a4.423 4.423 0 0 0 -4.419 4.418v22.433a4.423 4.423 0 0 0 4.419 4.418h5.032v10.118a5.315 5.315 0 0 0 5.309 5.308h84.726a5.315 5.315 0 0 0 5.309-5.308v-10.118h5.032a4.423 4.423 0 0 0 4.419-4.418v-22.433a4.423 4.423 0 0 0 -4.419-4.418zm-56.708-37.548a4 4 0 1 1 4 4 4.008 4.008 0 0 1 -4-4zm-12.883 19.825a4.482 4.482 0 0 1 4.477-4.477h24.82a4.482 4.482 0 0 1 4.477 4.477v2.3h-33.774zm-35.817 45.492a.919.919 0 0 1 -.919-.918v-22.433a.919.919 0 0 1 .919-.918h5.032v24.269zm96.881 13.618a1.811 1.811 0 0 1 -1.809 1.808h-84.731a1.811 1.811 0 0 1 -1.809-1.808v-51.5a1.811 1.811 0 0 1 1.809-1.808h84.726a1.811 1.811 0 0 1 1.809 1.808zm9.451-14.536a.919.919 0 0 1 -.919.918h-5.032v-24.269h5.032a.919.919 0 0 1 .919.918z"></path><path d="m48.969 110.531h-3.938a1.75 1.75 0 0 0 0 3.5h3.938a1.75 1.75 0 0 0 0-3.5z"></path><path d="m89.035 100.746h-63.824a1.75 1.75 0 0 0 -1.75 1.75v9.785a1.75 1.75 0 0 0 1.75 1.75h8.664a1.75 1.75 0 0 0 0-3.5h-6.914v-6.285h60.324v6.285h-27.16a1.75 1.75 0 0 0 0 3.5h28.91a1.75 1.75 0 0 0 1.75-1.75v-9.781a1.75 1.75 0 0 0 -1.75-1.754z"></path><path d="m36.205 94.463a8.63 8.63 0 1 0 -8.63-8.63 8.64 8.64 0 0 0 8.63 8.63zm0-13.76a5.13 5.13 0 1 1 -5.13 5.13 5.135 5.135 0 0 1 5.13-5.133z"></path><path d="m78.041 94.463a8.63 8.63 0 1 0 -8.63-8.63 8.64 8.64 0 0 0 8.63 8.63zm0-13.76a5.13 5.13 0 1 1 -5.13 5.13 5.135 5.135 0 0 1 5.13-5.133z"></path><path d="m98.25 0c-16.404 0-29.75 9.705-29.75 21.634 0 4.864 2.236 9.571 6.322 13.362l-3.457 11.984a1.75 1.75 0 0 0 2.469 2.048l14.695-7.4a1.75 1.75 0 1 0 -1.574-3.128l-11.116 5.6 2.653-9.2a1.748 1.748 0 0 0 -.553-1.822c-3.83-3.232-5.939-7.297-5.939-11.444 0-9.999 11.775-18.134 26.25-18.134s26.25 8.135 26.25 18.134c0 9.2-10.371 17.123-23.61 18.043a1.75 1.75 0 1 0 .242 3.491c15.317-1.068 26.868-10.322 26.868-21.534 0-11.929-13.346-21.634-29.75-21.634z"></path><path d="m83.528 14.587h11.992a1.75 1.75 0 0 0 0-3.5h-11.992a1.75 1.75 0 0 0 0 3.5z"></path><path d="m83.528 23.586h29.446a1.75 1.75 0 0 0 0-3.5h-29.446a1.75 1.75 0 0 0 0 3.5z"></path><path d="m83.528 32.586h29.446a1.75 1.75 0 0 0 0-3.5h-29.446a1.75 1.75 0 0 0 0 3.5z"></path></g></g></svg>