<?xml version="1.0" ?><svg enable-background="new 0 0 32 32" height="32px" id="svg2" version="1.1" viewBox="0 0 32 32" width="32px" xml:space="preserve" xmlns="http://www.w3.org/2000/svg" xmlns:cc="http://creativecommons.org/ns#" xmlns:dc="http://purl.org/dc/elements/1.1/" xmlns:inkscape="http://www.inkscape.org/namespaces/inkscape" xmlns:rdf="http://www.w3.org/1999/02/22-rdf-syntax-ns#" xmlns:sodipodi="http://sodipodi.sourceforge.net/DTD/sodipodi-0.dtd" xmlns:svg="http://www.w3.org/2000/svg"><g id="background"><rect fill="none" height="32" width="32"/></g><g id="browser"><polygon points="18,20 18,18 24,18 24,20 18,20  "/><polygon points="18,16 18,14 28,14 28,16 18,16  "/><polygon points="18,12 18,10 28,10 28,12 18,12  "/><rect height="10" width="10" x="4" y="10"/><path d="M0,0v28h31.999L32,0H0z M22,2v2H10V2H22z M8,2v2H6V2H8z M2,2h2v2H2V2z M29.999,26H2V6h27.999V26z M30,4h-4V2h4V4z"/></g></svg>