<!-- icon666.com - MILLIONS OF FREE VECTOR ICONS --><svg version="1.1" id="Layer_1" xmlns="http://www.w3.org/2000/svg" xmlns:xlink="http://www.w3.org/1999/xlink" x="0px" y="0px" viewBox="0 0 512 512" style="enable-background:new 0 0 512 512;" xml:space="preserve"><polygon style="fill:#FFE98F;" points="388.621,108.453 411.388,149.621 457.57,158.547 425.457,192.921 431.239,239.606 388.621,219.681 346.003,239.606 351.786,192.921 319.673,158.547 365.857,149.621 "></polygon><g><polygon style="fill:#FFDA44;" points="388.621,108.453 411.388,149.621 457.57,158.547 425.457,192.921 431.239,239.606 388.621,219.681 "></polygon><polygon style="fill:#FFDA44;" points="354.241,296.985 369.891,325.288 401.643,331.424 379.565,355.058 383.539,387.153 354.241,373.452 324.94,387.153 328.918,355.058 306.84,331.424 338.59,325.288 "></polygon></g><path style="fill:#3C5D76;" d="M204.914,255.998c0-104.784,65.545-194.245,157.867-229.661 C329.818,10.669,292.97,1.892,254.108,1.892C113.991,1.892,0,115.883,0,256s113.991,254.108,254.108,254.108 c38.864,0,75.711-8.777,108.676-24.447C270.463,450.247,204.914,360.784,204.914,255.998z"></path><polygon style="fill:#FFDA44;" points="473.217,256 486.022,279.157 512,284.177 493.937,303.513 497.186,329.773 473.217,318.565 449.243,329.773 452.498,303.513 434.431,284.177 460.413,279.157 "></polygon><path style="fill:#1E2E3B;" d="M204.914,255.998c0-104.784,65.545-194.245,157.867-229.661 C329.818,10.669,292.97,1.892,254.108,1.892c-28.673,0-56.25,4.781-81.982,13.573v481.069c25.732,8.792,53.309,13.573,81.982,13.573 c38.864,0,75.711-8.777,108.676-24.447C270.463,450.247,204.914,360.784,204.914,255.998z"></path></svg>