<?xml version="1.0" ?><svg id="Layer_1" style="enable-background:new 0 0 128 128;" version="1.1" viewBox="0 0 128 128" xml:space="preserve" xmlns="http://www.w3.org/2000/svg" xmlns:xlink="http://www.w3.org/1999/xlink"><g><path d="M1,38h126V2H1V38z M9,10h110v20H9V10z"/><path d="M1,82h126V46H1V82z M9,54h110v20H9V54z"/><path d="M1,127h126V91H1V127z M9,99h110v20H9V99z"/><rect height="8" width="8" x="15" y="16"/><rect height="8" width="8" x="31" y="16"/><rect height="8" width="8" x="47" y="16"/><rect height="8" width="8" x="15" y="59"/><rect height="8" width="8" x="31" y="59"/><rect height="8" width="8" x="47" y="59"/><rect height="8" width="8" x="15" y="105"/><rect height="8" width="8" x="31" y="105"/><rect height="8" width="8" x="47" y="105"/></g></svg>