<?xml version="1.0" encoding="utf-8"?><svg xmlns="http://www.w3.org/2000/svg" xmlns:xlink="http://www.w3.org/1999/xlink"><symbol viewBox="0 0 24 24" id="about-more" xmlns="http://www.w3.org/2000/svg"><path d="M0 0h24v24H0z"/><path d="M16 20V4H4v15a1 1 0 001 1h11zm3 2H5a3 3 0 01-3-3V3a1 1 0 011-1h14a1 1 0 011 1v7h4v9a3 3 0 01-3 3zm-1-10v7a1 1 0 002 0v-7h-2zM6 6h6v6H6V6zm2 2v2h2V8H8zm-2 5h8v2H6v-2zm0 3h8v2H6v-2z"/></symbol><symbol viewBox="0 0 24 24" id="about-short" xmlns="http://www.w3.org/2000/svg"><path d="M0 0h24v24H0z"/><path d="M21 8v12.993A1 1 0 0120.007 22H3.993A.993.993 0 013 21.008V2.992C3 2.455 3.449 2 4.002 2h10.995L21 8zm-2 1h-5V4H5v16h14V9zM8 7h3v2H8V7zm0 4h8v2H8v-2zm0 4h8v2H8v-2z"/></symbol><symbol viewBox="0 0 24 24" id="arrow" xmlns="http://www.w3.org/2000/svg"><path d="M0 0h24v24H0V0z"/><path d="M12 8l-6 6 1.41 1.41L12 10.83l4.59 4.58L18 14l-6-6z"/></symbol><symbol viewBox="0 0 24 24" id="cross" xmlns="http://www.w3.org/2000/svg"><path d="M0 0h24v24H0V0z"/><path d="M19 6.41L17.59 5 12 10.59 6.41 5 5 6.41 10.59 12 5 17.59 6.41 19 12 13.41 17.59 19 19 17.59 13.41 12 19 6.41z"/></symbol><symbol viewBox="0 0 128 128" id="email" xmlns="http://www.w3.org/2000/svg"><path d="M116.73 31.83a3 3 0 00-4.2-.61L64.14 67.34a1 1 0 01-1.2 0L15.5 31.06a3 3 0 10-3.64 4.77l37.3 28.53-36.89 27.8A3 3 0 1015.88 97l38.23-28.86 5.18 4a7 7 0 008.43.06l5.44-4.06L111.84 97a3 3 0 103.59-4.81L78.17 64.35 116.12 36a3 3 0 00.61-4.17z"/><path d="M113 19H15A15 15 0 000 34v60a15 15 0 0015 15h98a15 15 0 0015-15V34a15 15 0 00-15-15zm9 75a9 9 0 01-9 9H15a9 9 0 01-9-9V34a9 9 0 019-9h98a9 9 0 019 9z"/></symbol><symbol viewBox="0 0 25 25" id="github" xmlns="http://www.w3.org/2000/svg"><path d="M10.9 2.1c-4.6.5-8.3 4.2-8.8 8.7-.5 4.7 2.2 8.9 6.3 10.5.3.1.6-.1.6-.5v-1.6s-.4.1-.9.1c-1.4 0-2-1.2-2.1-1.9-.1-.4-.3-.7-.6-1-.3-.1-.4-.1-.4-.2 0-.2.3-.2.4-.2.6 0 1.1.7 1.3 1 .5.8 1.1 1 1.4 1 .4 0 .7-.1.9-.2.1-.7.4-1.4 1-1.8-2.3-.5-4-1.8-4-4 0-1.1.5-2.2 1.2-3-.1-.2-.2-.7-.2-1.4 0-.4 0-.9.2-1.3 0-.2.2-.3.3-.3h.1c.5.1 1.5.4 2.4 1.3.6-.2 1.3-.3 2-.3s1.4.1 2 .3c.9-.9 2-1.2 2.5-1.3h.1c.2 0 .3.1.4.3v1.3c0 .8-.1 1.2-.2 1.4.7.8 1.2 1.8 1.2 3 0 2.2-1.7 3.5-4 4 .6.5 1 1.4 1 2.3v2.6c0 .3.3.6.7.5 3.7-1.5 6.3-5.1 6.3-9.3 0-6-5.1-10.7-11.1-10z"/></symbol><symbol viewBox="0 0 440 440" id="skill-bem" xmlns="http://www.w3.org/2000/svg"><path d="M302.933 407.885H512V467.2H302.933v-59.315zm-68.019-239.352H119.467V44.8H0v366.933h234.914c38.763 0 70.187-33.211 70.187-71.974V237.184c0-38.767-31.424-68.65-70.187-68.65z"/></symbol><symbol viewBox="0 0 24 24" id="skill-es6" xmlns="http://www.w3.org/2000/svg"><path d="M3 3h18v18H3V3zm16.525 13.707c-.131-.821-.666-1.511-2.252-2.155-.552-.259-1.165-.438-1.349-.854-.068-.248-.078-.382-.034-.529.113-.484.687-.629 1.137-.495.293.09.563.315.732.676.775-.507.775-.507 1.316-.844-.203-.314-.304-.451-.439-.586-.473-.528-1.103-.798-2.126-.775l-.528.067c-.507.124-.991.395-1.283.754-.855.968-.608 2.655.427 3.354 1.023.765 2.521.933 2.712 1.653.18.878-.652 1.159-1.475 1.058-.607-.136-.945-.439-1.316-1.002l-1.372.788c.157.359.337.517.607.832 1.305 1.316 4.568 1.249 5.153-.754.021-.067.18-.528.056-1.237l.034.049zm-6.737-5.434h-1.686c0 1.453-.007 2.898-.007 4.354 0 .924.047 1.772-.104 2.033-.247.517-.886.451-1.175.359-.297-.146-.448-.349-.623-.641-.047-.078-.082-.146-.095-.146l-1.368.844c.229.473.563.879.994 1.137.641.383 1.502.507 2.404.305.588-.17 1.095-.519 1.358-1.059.384-.697.302-1.553.299-2.509.008-1.541 0-3.083 0-4.635l.003-.042z"/></symbol><symbol viewBox="0 0 256 256" id="skill-figma" xmlns="http://www.w3.org/2000/svg"><path d="M183.04 94A39.987 39.987 0 00162 20.001H94a39.987 39.987 0 00-21.04 74A39.964 39.964 0 0072.961 162 39.992 39.992 0 10134 196v-39.47A39.98 39.98 0 10183.04 94zM190 60.001a28.031 28.031 0 01-27.98 28L162 88l-.039.001L134 88V32.001h28a28.031 28.031 0 0128 28zm-124 0a28.031 28.031 0 0128-28h28V88H93.981A28.031 28.031 0 0166 60.001zM66 128a28.031 28.031 0 0127.981-28l.019.001h28v55.998L94 156a28.031 28.031 0 01-28-28zm28 95.999A28 28 0 1194 168h28v28a28.031 28.031 0 01-28 27.999zM162 156a28 28 0 01-.039-55.999H162.02A28 28 0 01162 156z"/></symbol><symbol viewBox="0 0 32 32" id="skill-git" xmlns="http://www.w3.org/2000/svg"><path d="M16 2c-.504 0-.996.184-1.375.563l-2.813 2.843c-.152.082-.28.2-.374.344l-8.876 8.875a1.947 1.947 0 000 2.75l12.063 12.063a1.955 1.955 0 002.75 0l12.063-12.063a1.947 1.947 0 000-2.75L17.374 2.562A1.923 1.923 0 0016 2zm0 2.031L27.969 16 16 27.969 4.031 16l8.282-8.281 1.75 1.75A1.98 1.98 0 0014 10c0 .738.402 1.371 1 1.719v8.562c-.598.348-1 .98-1 1.719a1.999 1.999 0 104 0c0-.738-.402-1.371-1-1.719v-7.843l3.063 3.062A1.999 1.999 0 0022 18c1.104 0 1.999-.895 1.999-2a1.999 1.999 0 00-2.5-1.938L17.937 10.5A1.999 1.999 0 0016 8a1.98 1.98 0 00-.53.063l-1.75-1.75z"/></symbol><symbol viewBox="0 0 32 32" id="skill-gulp" xmlns="http://www.w3.org/2000/svg"><path d="M22.154 1a.14.14 0 00-.093.033l-3.715 4.412-.758 2.606a48.434 48.434 0 00-1.592-.024c-3.86 0-6.996.41-6.996.916 0 1.21 13.99 1.21 13.99 0 0-.375-1.675-.691-4.09-.841l.6-2.145 3.475-4.18.005-.006c.078-.08-.074-.324-.322-.537-.186-.16-.381-.239-.504-.234zm-4.851 8.076l-.014.041c-.006.005-.006.012-.006.018 0 .075.303.136.672.136.37 0 .674-.061.674-.136l.012-.047c.097.035.15.075.15.121 0 .121-.375.22-.842.215-.454 0-.83-.092-.83-.213 0-.052.075-.1.184-.135zm5.61.344c-1.852.987-11.963.994-13.821.014l.822 7.232c.357-1.153 1.26-2.71 2.422-3.182.38-.156.768-.155 1.13.053.316.173.582.536.612.68.073.375-.12.523-.271.523-.182 0-.321-.264-.412-.42-.248-.42-.624-.439-1.024-.162-.418.288-.781.773-1.035 1.194a6.631 6.631 0 00-.727 1.625c-.09.323-.174.84-.035 1.146.061.127.151.207.297.207.303 0 .743-.38.955-.582.272-.259.623-.663.756-.922l.316-.892c.157-.392.598-.323.598 0 0 .588-.222.784-.603 2-.351 1.124-.461 1.488-.461 1.488-.042.16-.206.432-.381.432-.073 0-.126-.025-.156-.07-.061-.082-.055-.304-.05-.362.013-.184.381-1.28.442-1.453a7.36 7.36 0 01-.387.38c-.327.295-.852.68-1.3.68a.762.762 0 01-.465-.138l.459 4.588c.12.288 2.373.986 5.338.986 2.97 0 5.22-.703 5.336-.986l.66-5.452c-.345.3-.744.67-1.186.854-.327.133-1.053.218-1.053-.33 0-.3.552-.852.872-1.238.085-.098.283-.34.283-.467 0-.167-.362-.129-.707.142a3.373 3.373 0 00-.528.56c-.26.347-.398.645-.513.893-.375.818-.248.496-.551 1.268-.303.767-.254.68-.315.807a.565.565 0 01-.242.26.38.38 0 01-.369-.018c-.054-.035-.08-.11-.08-.213 0-.052.008-.104.02-.156.09-.352.472-1.043.908-1.977.097-.213.06-.15.047-.133-.375.346-.66.514-.871.606-.351.15-.787.15-.877-.237-.006-.023-.006-.047-.012-.07-.714.53-1.47.674-1.21-.467-.277.473-.763.86-1.357.86-.247 0-.429-.08-.519-.293-.139-.317.078-.86.277-1.373.103-.26.244-.57.432-.934.097-.196.253-.312.459-.26a.54.54 0 01.098.041c.157.104.096.258.017.414-.23.432-.43.75-.562 1.2-.054.19-.122.52.09.52a.728.728 0 00.417-.14c.278-.196.502-.489.672-.777a3.85 3.85 0 00.34-.709c.03-.098.068-.19.11-.277.067-.144.156-.293.314-.293.079 0 .144.029.193.086.103.127.08.257.026.396-.121.323-.284.612-.418.963-.08.202-.164.461-.164.674 0 .196.224.15.412.068.145-.063.29-.16.412-.257.073-.282.054-.22 1.598-3.932.079-.19.224-.272.369-.272a.34.34 0 01.193.065c.103.075.105.234.063.355-.042.11-.038.076-.274.606-.315.697-.52 1.2-.799 1.84-.115.265-.465 1.089-.525 1.285-.036.127-.08.334.06.334.328 0 1.169-.756 1.399-.98.012-.018.03-.024.055-.036.036-.11.071-.212.101-.316.085-.22.164-.475.322-.653.048-.058.103-.091.163-.091.169 0 .253.068.253.23 0 .063-.04.295-.066.358.085-.086.175-.172.272-.258.908-.801 1.554-.393 1.554.011 0 .426-.538 1.02-.834 1.348-.097.11-.296.311-.302.37 0 .074.053.105.132.105.121 0 .388-.203.485-.272.303-.225.713-.57 1.004-.812l.896-7.885zM10.93 24.03l.902 1.465.352 4.576c0 .513 1.712.928 3.818.928s3.818-.415 3.818-.928l.28-4.623.851-1.418c-2.397.963-7.527.997-10.021 0z"/></symbol><symbol viewBox="0 0 65 65" id="skill-mobfirst" xmlns="http://www.w3.org/2000/svg"><path d="M60.5 1.8c-.4 0-.8.3-.8.8v14c0 .4.3.8.8.8s.8-.3.8-.8v-14c0-.5-.4-.8-.8-.8zM60.5 18.8c-.4 0-.8.3-.8.8v2c0 .4.3.8.8.8s.8-.3.8-.8v-2c0-.5-.4-.8-.8-.8zM8.5 56.8H7.3v-1.3c0-.4-.3-.8-.8-.8s-.8.3-.8.8v1.3H4.5c-.4 0-.8.3-.8.8s.3.8.8.8h1.3v1.3c0 .4.3.8.8.8s.8-.3.8-.8v-1.3h1.3c.4 0 .8-.3.8-.8s-.6-.8-1-.8zM57.5 25.8h-1.3v-1.3c0-.4-.3-.8-.8-.8s-.8.3-.8.8v1.3h-1.3c-.4 0-.8.3-.8.8s.3.8.8.8h1.3v1.3c0 .4.3.8.8.8s.8-.3.8-.8v-1.3h1.3c.4 0 .8-.3.8-.8s-.4-.8-.8-.8zM24.5 6.3h14c.4 0 .8-.3.8-.8s-.3-.8-.8-.8h-14c-.4 0-.8.3-.8.8s.4.8.8.8zM32.5 54.8c-1.5 0-2.8 1.2-2.8 2.8s1.2 2.8 2.8 2.8 2.8-1.2 2.8-2.8-1.3-2.8-2.8-2.8zm0 4c-.7 0-1.3-.6-1.3-1.3s.6-1.3 1.3-1.3 1.3.6 1.3 1.3-.6 1.3-1.3 1.3z"/><path d="M47.5 22.2c.5 0 1.1.1 1.6.2h.4c.4 0 .8-.3.8-.8V1.3c0-.4-.3-.8-.8-.8h-36c-.4 0-.8.3-.8.8v62c0 .4.3.8.8.8h36c.4 0 .8-.3.8-.8V33c0-.4-.3-.8-.8-.8h-.4c-.5.2-1 .2-1.6.2-2.9 0-5.3-2.4-5.3-5.3s2.4-4.9 5.3-4.9zm-12-2.8l1.5 2.9-.6 1.5-3.1 1c-.3.1-.5.4-.5.7v4c0 .3.2.6.5.7l3.1 1 .6 1.5-1.5 2.9c-.1.3-.1.6.1.9l2.8 2.8c.2.2.6.3.9.1l2.9-1.5 1.5.6 1 3.1c.1.3.4.5.7.5h3.2v8.5H41v-2.5c0-.3-.2-.6-.5-.7l-2.5-.7c-.1-.4-.3-.7-.4-1.1l1.2-2.3c.1-.3.1-.6-.1-.9l-2.3-2.3c-.2-.2-.6-.3-.9-.1l-2.3 1.2c-.3-.2-.7-.3-1.1-.4l-.8-2.5c-.1-.3-.4-.5-.7-.5h-3.3c-.3 0-.6.2-.7.5l-.8 2.5c-.4.1-.7.3-1.1.4L22.3 40c-.3-.1-.6-.1-.9.1l-2.3 2.3c-.2.2-.3.6-.1.9l1.2 2.3c-.2.3-.3.7-.4 1.1l-2.5.8c-.3.1-.5.4-.5.7v2.5h-2.5V10.3h34.5v2.5h-3.2c-.3 0-.6.2-.7.5l-1 3.1-1.5.6-2.9-1.5c-.3-.1-.6-.1-.9.1l-2.8 2.8c-.4.3-.4.7-.3 1zm-1.1 31.4c0-.3.1-.6.1-.9 0-3.1-2.5-5.6-5.6-5.6s-5.6 2.5-5.6 5.6c0 .3 0 .6.1.9h-5.1v-2l2.3-.8c.2-.1.4-.3.5-.5.2-.6.4-1.1.6-1.5.1-.2.1-.5 0-.7l-1.1-2.2 1.5-1.5 2.2 1.1c.2.1.5.1.7 0 .5-.3 1-.5 1.5-.6.2-.1.4-.2.5-.5l.8-2.3H30l.8 2.3c.1.2.3.4.5.5.6.2 1.1.4 1.5.6.2.1.5.1.7 0l2.2-1.1 1.5 1.5-1.1 2.2c-.1.2-.1.5 0 .7.3.5.5 1 .6 1.5.1.2.3.4.5.5l2.3.8v2h-5.1zM48.8 2.3v6.5H14.3V2.3h34.5zM14.3 62.8V52.3h10c.3 0 .5-.2.6-.4.1-.2.1-.4.1-.6-.2-.4-.2-.9-.2-1.4 0-2.3 1.9-4.1 4.1-4.1s4.1 1.9 4.1 4.1c0 .5-.1.9-.2 1.4-.2.5.2 1 .7 1h15.3v10.5H14.3zm26.5-35.3c0 3.7 3 6.8 6.8 6.8.4 0 .8-.1 1.2-.1v6.6H46l-1-2.9c-.1-.2-.3-.4-.5-.5-.7-.2-1.3-.5-1.9-.8-.2-.1-.5-.1-.7 0L39.1 38 37 35.9l1.4-2.8c.1-.2.1-.5 0-.7-.3-.6-.6-1.3-.8-1.9-.1-.2-.3-.4-.5-.5l-2.9-1v-3l2.9-1c.2-.1.4-.3.5-.5.2-.7.5-1.4.8-1.9.1-.2.1-.5 0-.7L37 19.1l2.1-2.1 2.8 1.4c.2.1.5.1.7 0 .6-.3 1.2-.6 1.9-.8.2-.1.4-.2.5-.5l1-3h2.7v6.6c-.4-.1-.8-.1-1.2-.1-3.7.1-6.7 3.2-6.7 6.9z"/></symbol><symbol viewBox="0 0 24 24" id="skill-scss" xmlns="http://www.w3.org/2000/svg"><path d="M20.641 13.355a4.928 4.928 0 00-2.173.506c-.223-.444-.448-.835-.486-1.126-.044-.339-.095-.542-.042-.946.053-.404.287-.976.284-1.019-.003-.043-.052-.249-.536-.252-.484-.003-.897.093-.946.221a4.745 4.745 0 00-.2.715c-.085.438-.965 2.002-1.465 2.82-.164-.319-.303-.601-.332-.823-.044-.339-.095-.542-.042-.946.053-.404.287-.976.284-1.019-.003-.043-.052-.249-.536-.252-.484-.003-.897.093-.946.221-.049.128-.101.426-.2.715s-1.27 2.897-1.576 3.573c-.156.344-.292.621-.388.81l-.001-.001-.016.034c-.082.161-.131.25-.131.25l.001.003c-.065.118-.135.228-.17.228-.024 0-.073-.314.011-.746.174-.905.593-2.316.588-2.364-.002-.025.078-.271-.273-.399-.341-.125-.463.083-.494.084-.03.001-.053.074-.053.074s.38-1.587-.725-1.587c-.691 0-1.648.756-2.12 1.441-.298.162-.935.51-1.61.881l-.776.427a2.686 2.686 0 00-.052-.057c-1.34-1.43-3.818-2.441-3.712-4.363.038-.699.281-2.539 4.76-4.771 3.669-1.828 6.607-1.325 7.114-.21.725 1.593-1.57 4.554-5.38 4.981-1.452.163-2.216-.4-2.406-.609-.2-.221-.23-.231-.305-.189-.122.067-.045.262 0 .378.114.296.581.821 1.377 1.082.7.23 2.405.356 4.466-.441 2.309-.893 4.112-3.377 3.582-5.454-.539-2.112-4.04-2.806-7.355-1.629-1.97.697-4.106 1.797-5.641 3.233C.195 8.536-.097 10.023.023 10.644c.426 2.206 3.467 3.643 4.685 4.708l-.168.093c-.611.302-2.929 1.515-3.509 2.797-.658 1.454.105 2.497.609 2.638 1.564.435 3.169-.348 4.031-1.634.862-1.286.757-2.961.361-3.725l-.015-.028.478-.282c.311-.182.616-.353.88-.497-.148.406-.257.892-.313 1.595-.064.824.274 1.891.717 2.311.195.185.429.189.578.189.515 0 .75-.428 1.009-.935.317-.622.599-1.345.599-1.345s-.353 1.955.61 1.955c.351 0 .704-.455.861-.687l.001.004.027-.045.057-.091.002-.01a39.1 39.1 0 00.923-1.724c.606-1.19 1.187-2.68 1.187-2.68s.054.364.231.967c.104.354.326.746.5 1.122-.141.195-.227.307-.227.307l.002.006c-.112.149-.238.31-.37.467-.478.57-1.048 1.22-1.124 1.408-.09.221-.069.384.105.515.127.096.353.11.589.095a2.72 2.72 0 00.882-.2c.233-.082.504-.212.758-.399.469-.345.752-.839.725-1.492-.015-.36-.13-.717-.275-1.054l.128-.186c.74-1.081 1.314-2.27 1.314-2.27s.054.364.231.967c.09.305.266.638.426.964-.696.565-1.127 1.222-1.277 1.653-.277.797-.06 1.158.347 1.24.184.037.445-.047.64-.13.244-.081.536-.215.81-.416.469-.345.92-.828.893-1.482a2.757 2.757 0 00-.203-.877c.59-.246 1.353-.382 2.325-.269 2.086.244 2.495 1.546 2.417 2.091-.078.545-.516.845-.662.935-.146.09-.191.122-.179.189.018.098.085.094.21.073.172-.029 1.095-.443 1.135-1.45.049-1.279-1.175-2.682-3.343-2.67zm-16.078 5.42c-.691.754-1.656 1.039-2.07.799-.447-.259-.27-1.369.578-2.169.517-.487 1.184-.936 1.627-1.213a71.89 71.89 0 01.476-.283l-.001-.001.107-.064c.307 1.138.008 2.14-.717 2.931zm5.033-3.422c-.241.587-.744 2.088-1.051 2.007-.263-.069-.423-1.21-.053-2.333.187-.565.585-1.241.82-1.503.377-.422.792-.56.893-.389.13.219-.458 1.851-.609 2.218zm4.159 1.985c-.102.053-.196.087-.239.061-.032-.019.042-.089.042-.089s.52-.56.725-.814c.119-.148.257-.324.408-.521l.002.058c-.001.67-.649 1.123-.938 1.305zm3.204-.731c-.076-.054-.063-.229.187-.774.098-.214.322-.574.712-.919.045.142.073.277.072.404-.005.844-.607 1.159-.971 1.289z"/></symbol><symbol viewBox="0 0 37 37" id="telegram" xmlns="http://www.w3.org/2000/svg"><path d="M16 .5C7.437.5.5 7.438.5 16S7.438 31.5 16 31.5c8.563 0 15.5-6.938 15.5-15.5S24.562.5 16 .5zm7.613 10.619l-2.544 11.988c-.188.85-.694 1.056-1.4.656l-3.875-2.856-1.869 1.8c-.206.206-.381.381-.781.381l.275-3.944 7.181-6.488c.313-.275-.069-.431-.482-.156l-8.875 5.587-3.825-1.194c-.831-.262-.85-.831.175-1.231l14.944-5.763c.694-.25 1.3.169 1.075 1.219z"/></symbol></svg>