<svg xmlns="http://www.w3.org/2000/svg">
  <symbol id="footer-telegram" viewBox="0 0 37 37">
    <path d="M16 0.5c-8.563 0-15.5 6.938-15.5 15.5s6.938 15.5 15.5 15.5c8.563 0 15.5-6.938 15.5-15.5s-6.938-15.5-15.5-15.5zM23.613 11.119l-2.544 11.988c-0.188 0.85-0.694 1.056-1.4 0.656l-3.875-2.856-1.869 1.8c-0.206 0.206-0.381 0.381-0.781 0.381l0.275-3.944 7.181-6.488c0.313-0.275-0.069-0.431-0.482-0.156l-8.875 5.587-3.825-1.194c-0.831-0.262-0.85-0.831 0.175-1.231l14.944-5.763c0.694-0.25 1.3 0.169 1.075 1.219z"/>
  </symbol>
  <symbol id="footer-github" viewBox="0 0 25 25">
    <path d="M10.9,2.1c-4.6,0.5-8.3,4.2-8.8,8.7c-0.5,4.7,2.2,8.9,6.3,10.5C8.7,21.4,9,21.2,9,20.8v-1.6c0,0-0.4,0.1-0.9,0.1 c-1.4,0-2-1.2-2.1-1.9c-0.1-0.4-0.3-0.7-0.6-1C5.1,16.3,5,16.3,5,16.2C5,16,5.3,16,5.4,16c0.6,0,1.1,0.7,1.3,1c0.5,0.8,1.1,1,1.4,1 c0.4,0,0.7-0.1,0.9-0.2c0.1-0.7,0.4-1.4,1-1.8c-2.3-0.5-4-1.8-4-4c0-1.1,0.5-2.2,1.2-3C7.1,8.8,7,8.3,7,7.6c0-0.4,0-0.9,0.2-1.3 C7.2,6.1,7.4,6,7.5,6c0,0,0.1,0,0.1,0C8.1,6.1,9.1,6.4,10,7.3C10.6,7.1,11.3,7,12,7s1.4,0.1,2,0.3c0.9-0.9,2-1.2,2.5-1.3 c0,0,0.1,0,0.1,0c0.2,0,0.3,0.1,0.4,0.3C17,6.7,17,7.2,17,7.6c0,0.8-0.1,1.2-0.2,1.4c0.7,0.8,1.2,1.8,1.2,3c0,2.2-1.7,3.5-4,4 c0.6,0.5,1,1.4,1,2.3v2.6c0,0.3,0.3,0.6,0.7,0.5c3.7-1.5,6.3-5.1,6.3-9.3C22,6.1,16.9,1.4,10.9,2.1z"/>
  </symbol>
  <symbol id="footer-email" viewBox="0 0 128 128">
    <path d="M116.73,31.83a3,3,0,0,0-4.2-.61L64.14,67.34a1,1,0,0,1-1.2,0L15.5,31.06a3,3,0,1,0-3.64,4.77L49.16,64.36,12.27,92.16A3,3,0,1,0,15.88,97L54.11,68.14l5.18,4a7,7,0,0,0,8.43.06l5.44-4.06L111.84,97a3,3,0,1,0,3.59-4.81L78.17,64.35,116.12,36A3,3,0,0,0,116.73,31.83Z"/><path d="M113,19H15A15,15,0,0,0,0,34V94a15,15,0,0,0,15,15h98a15,15,0,0,0,15-15V34A15,15,0,0,0,113,19Zm9,75a9,9,0,0,1-9,9H15a9,9,0,0,1-9-9V34a9,9,0,0,1,9-9h98a9,9,0,0,1,9,9Z"/>
  </symbol>
  <symbol id="arrow" viewBox="0 0 24 24">
    <path d="M0 0h24v24H0V0z" fill="none"/>
    <path d="M12 8l-6 6 1.41 1.41L12 10.83l4.59 4.58L18 14l-6-6z"/>
  </symbol>
</svg>
